<svg width="476" height="473" viewBox="0 0 476 473" fill="none" xmlns="http://www.w3.org/2000/svg">
<path d="M50.415 472.793C41.6573 472.793 32.4466 470.377 22.5564 464.866C-32.4059 433.912 25.5763 324.667 64.0045 252.34C79.9345 222.292 92.5426 198.586 92.5426 189.224C92.5426 171.331 77.4431 161.818 62.7966 152.608C47.0176 142.642 30.7856 132.374 33.2015 111.688C34.636 99.382 40.4493 89.4163 50.415 81.9421C91.0327 51.5165 192.803 68.73 247.539 78.0162C264.904 80.9606 277.512 83.0745 282.268 82.7725C299.783 81.5646 320.243 63.7471 341.987 44.7972C369.619 20.789 398.157 -4.04968 425.109 0.555674C439.605 3.04709 451.987 13.6923 463.009 33.1706C503.778 104.969 432.433 225.538 398.232 283.445C388.569 299.828 381.547 311.681 381.019 315.683C380.717 318.174 383.737 323.836 387.512 330.933C396.345 347.391 409.632 372.381 401.932 393.37C397.779 404.694 387.889 413.603 372.488 419.794C324.849 438.895 269.962 415.49 225.871 396.691C201.108 386.122 179.742 376.987 166.304 378.723C154.451 380.233 141.843 396.314 127.196 414.962C106.661 441.31 82.0485 472.793 50.415 472.793ZM126.819 65.7101C96.091 65.7101 68.0814 70.0134 51.019 82.7725C41.2798 90.0203 35.6175 99.835 34.2585 111.839C31.9181 131.846 47.1686 141.434 63.3251 151.626C78.1981 160.988 93.5241 170.652 93.5241 189.149C93.5241 198.812 80.8405 222.594 64.835 252.793C26.7087 324.742 -30.9714 433.459 23.0094 463.884C67.9304 489.176 100.319 447.652 126.441 414.282C141.163 395.408 153.922 379.1 166.228 377.591C179.969 375.854 201.486 385.065 226.4 395.71C270.339 414.433 325 437.762 372.186 418.812C387.285 412.772 397.024 404.09 401.026 393.068C408.5 372.457 395.363 347.844 386.681 331.462C382.604 323.836 379.66 318.325 380.037 315.532C380.566 311.304 387.285 299.979 397.402 282.841C431.602 225.085 502.645 104.893 462.179 33.6236C451.307 14.4472 439.152 3.95306 425.034 1.53714C398.61 -2.99271 370.223 21.695 342.817 45.5522C320.923 64.5776 300.312 82.546 282.495 83.754C277.587 84.056 264.979 81.9421 247.464 78.9977C215.906 73.7128 168.795 65.7101 126.819 65.7101Z" fill="url(#paint0_linear)"/>
<path d="M52.982 466.678C44.5263 466.678 35.6176 464.413 26.1804 459.128C-26.1395 429.684 29.2758 321.194 65.8921 249.396C80.6896 220.329 92.4672 197.378 92.4672 188.545C92.4672 171.633 78.1982 161.819 64.3821 152.381C49.4336 142.189 34.0321 131.544 36.3725 111.99C37.7315 100.59 43.0918 91.3038 52.4535 84.2825C91.7122 54.6875 192.124 71.2214 246.029 80.1301C262.714 82.8481 274.794 84.8865 279.324 84.5845C295.707 83.452 315.638 66.8426 336.777 49.1761C364.636 25.8474 393.476 1.83916 420.127 6.67101C434.018 9.23792 445.796 19.2791 456.139 37.474C494.869 105.799 426.997 225.538 394.382 283.068C385.398 298.922 378.905 310.398 378.452 314.173C378.15 316.513 380.943 321.949 384.492 328.895C393.023 345.504 405.858 370.645 398.006 391.482C393.929 402.278 384.643 410.658 370.298 416.396C325.075 434.516 270.34 412.244 226.4 394.351C201.939 384.385 180.875 375.854 168.191 377.44C157.018 378.799 144.485 393.898 129.914 411.338C108.926 436.63 83.785 466.678 52.982 466.678ZM36.901 112.066L37.4295 112.141C35.1646 131.091 49.6601 141.057 64.9861 151.551C79.0287 161.139 93.5242 171.105 93.5242 188.62C93.5242 197.68 81.7466 220.707 66.8736 249.924C30.4082 321.269 -24.6295 429.231 26.7088 458.222C35.8441 463.356 44.6018 465.621 52.9065 465.621C83.332 465.621 108.246 435.799 129.159 410.734C143.881 393.143 156.565 377.893 168.116 376.458C181.101 374.873 202.316 383.479 226.853 393.445C270.641 411.263 325.151 433.459 369.996 415.49C384.039 409.828 393.174 401.674 397.1 391.18C404.725 370.796 392.042 345.882 383.586 329.423C379.811 322.024 377.093 316.664 377.395 314.097C377.924 310.096 384.114 299.224 393.476 282.615C426.015 225.236 493.661 105.799 455.233 38.078C445.041 20.1851 433.565 10.2949 419.976 7.80347C393.778 2.97162 365.089 26.8289 337.457 49.9311C316.167 67.673 296.084 84.4335 279.399 85.566C274.794 85.868 262.639 83.905 245.878 81.1116C192.049 72.2784 92.0142 55.8199 53.0575 85.113C43.9978 91.9833 38.713 101.043 37.4295 112.141L36.901 112.066Z" fill="url(#paint1_linear)"/>
<path d="M55.6242 460.562C47.395 460.562 38.8637 458.373 29.955 453.39C-19.6469 425.456 33.0504 317.721 67.9303 246.376C81.6709 218.291 92.5425 196.094 92.5425 187.941C92.5425 172.011 79.104 161.969 66.1184 152.23C52.0003 141.661 37.3538 130.789 39.5432 112.217L40.0717 112.292L39.5432 112.217C40.7512 101.722 45.8095 93.0402 54.4917 86.4719C92.3915 57.7828 191.369 73.6373 244.519 82.093C260.525 84.66 272.076 86.4719 276.304 86.2454C291.63 85.1884 310.957 69.7114 331.492 53.404C358.294 32.0381 388.719 7.80343 415.219 12.8618C428.582 15.4287 439.68 24.9414 449.344 41.8528C486.111 106.63 421.636 225.614 390.682 282.766C382.378 298.092 376.413 309.114 375.96 312.587C375.658 314.701 378.301 320.061 381.547 326.781C389.776 343.541 402.158 368.908 394.231 389.519C390.305 399.787 381.547 407.714 368.335 412.999C325.528 430.137 270.943 409.073 227.079 392.086C202.995 382.8 182.158 374.722 170.23 376.232C159.811 377.515 147.278 391.558 132.783 407.79C111.19 431.873 85.5967 460.562 55.6242 460.562ZM128.555 71.1459C98.4313 71.1459 71.1012 75.2228 55.0202 87.3779C46.5645 93.7952 41.6572 102.175 40.4492 112.368C38.3353 130.336 52.0758 140.528 66.5714 151.4C79.7834 161.29 93.4485 171.482 93.4485 187.941C93.4485 196.396 82.5768 218.668 68.7608 246.829C34.0319 317.796 -18.3634 425.003 30.3325 452.409C70.8747 475.209 104.698 437.46 131.801 407.035C146.448 390.652 159.056 376.534 169.928 375.175C182.158 373.665 203.071 381.743 227.23 391.105C270.943 408.016 325.302 429.004 367.731 412.017C380.717 406.808 389.172 399.107 393.023 389.142C400.799 368.908 388.493 343.843 380.415 327.234C376.942 320.061 374.375 314.928 374.677 312.436C375.13 308.737 380.868 298.167 389.474 282.237C420.353 225.236 484.601 106.554 448.136 42.3058C438.699 25.6963 427.752 16.3346 414.766 13.8432C388.719 8.86039 358.52 32.8686 331.87 54.1589C311.183 70.6174 291.705 86.1699 276.077 87.2269C271.774 87.5289 260.147 85.6414 243.991 83.0745C213.943 78.3936 168.795 71.1459 128.555 71.1459Z" fill="url(#paint2_linear)"/>
<path d="M58.1912 454.447C50.1885 454.447 42.0347 452.409 33.6545 447.652C-13.305 421.228 36.7499 314.173 69.8933 243.356C82.5769 216.328 92.5426 194.886 92.5426 187.337C92.5426 172.388 79.9345 162.045 67.7039 152.079C54.3408 141.208 40.6003 129.959 42.6387 112.519C43.7712 102.855 48.452 94.9276 56.4548 88.8123C92.9956 61.0292 190.538 76.1287 242.934 84.2825C258.26 86.6229 269.358 88.3593 273.284 88.1329C287.477 87.1514 306.276 72.8823 326.132 57.7828C353.236 37.172 384.039 13.8432 410.312 19.2036C423.071 21.846 433.565 30.6792 442.474 46.3827C477.203 107.611 416.201 225.916 386.908 282.69C379.358 297.412 373.847 307.982 373.469 311.228C373.243 313.191 375.583 318.4 378.678 324.893C386.077 340.823 398.534 367.398 390.38 387.858C386.53 397.597 378.452 404.921 366.221 409.828C325.83 426.06 271.321 406.053 227.608 390.048C203.902 381.365 183.366 373.816 172.193 375.25C162.453 376.458 150.072 389.444 135.652 404.392C113.531 427.192 87.3333 454.447 58.1912 454.447ZM43.0917 112.594L43.6202 112.67C41.6572 129.581 55.1713 140.604 68.3079 151.324C80.6895 161.441 93.5241 171.935 93.5241 187.412C93.5241 195.264 83.4829 216.705 70.7993 243.884C37.8069 314.324 -11.946 420.775 34.1075 446.746C42.2612 451.352 50.3395 453.315 58.1157 453.315C86.8803 453.315 112.927 426.211 134.746 403.486C149.317 388.311 161.849 375.25 171.966 373.967C183.366 372.532 203.977 380.082 227.834 388.84C271.396 404.845 325.679 424.701 365.693 408.696C377.546 403.939 385.473 396.767 389.248 387.33C397.175 367.323 384.869 340.974 377.546 325.195C374.3 318.249 371.959 313.267 372.261 311.002C372.714 307.604 377.923 297.412 385.851 282.086C415.068 225.387 475.919 107.46 441.492 46.7602C432.735 31.3587 422.467 22.6765 410.085 20.1095C384.265 14.8247 353.764 38.0025 326.736 58.4623C306.729 73.6373 287.855 87.9819 273.284 89.0388C269.282 89.3408 258.109 87.6044 242.707 85.1884C190.463 77.1102 93.2221 62.0107 57.0588 89.5673C49.207 95.5316 44.7526 103.232 43.6202 112.594H43.0917Z" fill="url(#paint3_linear)"/>
<path d="M60.7582 448.332C53.0574 448.332 45.2057 446.444 37.2784 441.99C17.7246 430.967 14.1762 403.184 26.5578 357.131C36.9009 318.476 56.2283 275.14 71.7053 240.336C83.2564 214.289 92.4671 193.754 92.4671 186.733C92.4671 172.69 80.6895 162.196 69.2139 152.004C56.6813 140.83 43.6957 129.204 45.6587 112.821L46.1871 112.896L45.6587 112.821C46.7156 104.063 50.9435 96.7396 58.4177 91.0772C93.4486 64.2756 189.633 78.6201 241.348 86.3209C255.995 88.5103 266.565 90.0958 270.188 89.8693C283.325 88.9633 301.444 75.9022 320.696 62.0107C348.177 42.1548 379.358 19.732 405.405 25.3944C417.484 28.0368 427.374 36.3415 435.528 50.686C468.294 108.366 410.689 225.916 383.057 282.464C376.187 296.582 371.204 306.698 370.827 309.718C370.6 311.53 372.79 316.513 375.583 322.779C382.68 338.86 394.608 365.813 386.379 385.971C382.68 395.106 375.13 401.976 364.032 406.431C326.057 421.681 271.698 402.882 227.985 387.707C204.581 379.629 184.423 372.608 174.005 373.967C165.02 375.099 152.714 387.028 138.37 400.768C115.947 422.512 89.1452 448.332 60.7582 448.332ZM130.291 76.5062C100.772 76.5062 74.1967 80.3566 59.0972 91.8322C51.925 97.3435 47.7726 104.365 46.7911 112.896C44.9037 128.751 57.6628 140.151 69.9689 151.173C81.52 161.516 93.5241 172.237 93.5241 186.733C93.5241 193.98 84.3134 214.667 72.6868 240.789C43.3937 306.547 -5.6042 416.623 37.8069 441.084C74.0457 461.468 109.303 427.419 137.615 400.013C152.035 386.122 164.492 374.042 173.854 372.91C184.499 371.551 204.808 378.572 228.287 386.726C271.774 401.75 325.906 420.549 363.579 405.449C374.375 401.07 381.698 394.426 385.322 385.593C393.4 365.813 381.547 339.162 374.526 323.232C371.582 316.513 369.392 311.681 369.694 309.567C370.072 306.396 374.828 296.733 382.076 282.011C409.632 225.689 467.086 108.442 434.622 51.2145C426.619 37.0965 416.956 28.9427 405.178 26.3758C379.584 20.789 348.63 43.1363 321.376 62.7657C302.048 76.7327 283.778 89.8693 270.339 90.7753C266.565 91.0017 255.995 89.4163 241.273 87.2269C212.055 82.999 168.72 76.5062 130.291 76.5062Z" fill="url(#paint4_linear)"/>
<path d="M63.023 442.065C55.6242 442.065 48.2255 440.329 41.0532 436.252C22.6318 425.909 19.3854 398.654 31.0875 352.903C40.9022 314.55 59.7766 269.856 73.5926 237.241C84.1623 212.326 92.467 192.622 92.467 186.129C92.467 173.068 81.5199 162.272 70.8747 151.853C59.1726 140.302 47.0175 128.373 48.8294 113.047C49.7354 105.12 53.6613 98.4761 60.4561 93.2667C94.0525 67.4466 192.501 81.5646 239.838 88.3594C253.805 90.3978 263.847 91.8323 267.244 91.6058C279.324 90.7753 296.763 78.8467 315.336 66.2386C343.194 47.2132 374.828 25.6964 400.648 31.6607C411.973 34.3031 421.41 42.1549 428.733 55.1405C459.461 109.272 403.291 230.597 379.358 282.388C373.167 295.827 368.637 305.49 368.335 308.208C368.109 309.869 370.147 314.701 372.639 320.741C379.433 337.048 390.833 364.303 382.529 384.159C378.98 392.69 372.035 399.032 361.993 403.033C326.434 417.302 269.886 398.881 228.589 385.442C205.562 377.968 185.707 371.551 176.043 372.683C167.814 373.74 155.583 384.612 141.465 397.144C119.42 416.849 91.0326 442.065 63.023 442.065ZM49.3579 113.123L49.8864 113.198C48.15 128.071 60.0786 139.773 71.6297 151.098C82.4259 161.668 93.524 172.615 93.524 186.129C93.524 192.773 85.5968 211.647 74.5741 237.618C46.942 302.999 0.737488 412.395 41.5062 435.346C75.5556 454.523 111.643 422.361 140.634 396.465C154.904 383.781 167.21 372.759 175.816 371.702C185.707 370.494 204.732 376.685 228.816 384.461C269.962 397.824 326.283 416.17 361.54 402.052C371.355 398.126 378.074 391.935 381.472 383.706C389.625 364.227 378.376 337.199 371.582 321.043C368.788 314.324 366.901 309.945 367.203 307.982C367.58 305.113 371.884 295.827 378.301 281.86C402.234 230.219 458.177 109.197 427.752 55.5934C420.428 42.7589 411.444 35.2091 400.346 32.6422C374.979 26.7534 343.572 48.1947 315.864 67.0691C296.386 80.3566 279.626 91.7568 267.244 92.6628C263.771 92.8892 253.654 91.4548 239.612 89.4164C192.501 82.6216 94.3545 68.579 61.1355 94.0972C54.5673 99.1555 50.7924 105.573 49.8864 113.198L49.3579 113.123Z" fill="url(#paint5_linear)"/>
<path d="M65.59 436.026C58.4177 436.026 51.3964 434.365 44.6771 430.59C5.7959 408.696 49.358 299.375 75.4047 234.07C84.9174 210.212 92.3916 191.414 92.3916 185.525C92.3916 173.445 82.2749 162.422 72.3848 151.777C61.4376 139.924 50.113 127.618 51.8494 113.349C52.6799 106.252 56.2283 100.212 62.4191 95.4561C94.43 70.6929 191.52 84.056 238.177 90.4733C251.389 92.2852 260.978 93.6442 264.073 93.4177C275.096 92.6627 291.101 82.3951 309.674 70.4664C337.985 52.2715 370.147 31.6607 395.665 37.927C406.31 40.5694 415.068 47.8172 421.712 59.5193C450.401 110.103 397.93 230.823 375.432 282.313C369.921 295.072 365.919 304.207 365.617 306.698C365.391 308.208 367.203 312.814 369.543 318.627C378.074 340.219 395.741 385.291 359.729 399.711C351.273 403.109 341.232 404.543 330.36 404.543C298.651 404.543 259.543 392.615 228.891 383.328C206.317 376.458 186.764 370.494 177.855 371.626C170.305 372.532 158.301 382.422 144.334 393.823C121.911 412.168 92.8446 436.026 65.59 436.026ZM132.33 82.0931C103.263 82.0931 76.9901 85.566 63.1741 96.2866C57.2852 100.892 53.8124 106.63 53.0574 113.425C51.3964 127.241 62.5701 139.32 73.3662 151.022C83.3319 161.819 93.5996 172.992 93.5996 185.525C93.5996 191.64 86.4273 209.608 76.5371 234.447C50.4905 299.451 7.15486 408.167 45.2056 429.608C51.7739 433.308 58.6442 434.893 65.59 434.893C92.4671 434.893 121.383 411.262 143.654 392.917C157.697 381.441 169.852 371.475 177.704 370.494C186.839 369.361 205.562 375.024 229.193 382.196C270.264 394.728 326.585 411.791 359.351 398.654C394.457 384.612 376.942 340.219 368.562 318.929C366.07 312.512 364.334 308.284 364.56 306.472C364.862 303.829 368.713 295.072 374.526 281.784C396.873 230.37 449.269 110.027 420.806 59.8968C414.238 48.2702 405.933 41.3999 395.439 38.7575C370.298 32.5667 338.438 53.0265 310.278 71.1459C291.63 83.15 275.473 93.4932 264.224 94.2482C261.053 94.4747 251.389 93.1157 238.102 91.3038C211.904 87.9064 169.777 82.0931 132.33 82.0931Z" fill="url(#paint6_linear)"/>
<path d="M68.2325 429.91C61.3622 429.91 54.6429 428.4 48.3766 424.852C12.2133 404.468 52.9065 295.827 77.2167 230.823C85.7479 208.174 92.3917 190.206 92.3917 184.921C92.3917 173.823 83.483 163.026 74.0458 151.702C63.9291 139.471 53.435 126.863 55.0204 113.575L55.5489 113.651L55.0204 113.575C55.7754 107.309 58.9463 101.873 64.4576 97.57C94.8831 73.8638 190.69 86.3964 236.668 92.4362C249.2 94.0971 258.26 95.3051 261.053 95.0786C271.019 94.3991 286.345 85.1884 304.087 74.4677C332.927 57.1033 365.693 37.3984 390.909 44.0422C400.799 46.6092 408.802 53.2529 414.766 63.7471C441.417 110.707 392.57 230.899 371.657 282.237C366.75 294.241 363.277 302.923 362.975 305.113C362.824 306.472 364.409 310.926 366.448 316.513C374.375 338.105 390.909 382.951 357.464 396.314C326.736 408.62 270.339 392.69 229.118 380.988C206.922 374.722 187.821 369.286 179.591 370.343C172.721 371.173 160.944 380.006 147.278 390.274C124.478 407.563 94.6566 429.91 68.2325 429.91ZM133.16 84.8109C104.396 84.8109 78.4247 88.1328 65.2126 98.476C59.9277 102.628 56.8323 107.762 56.1529 113.726C54.6429 126.561 64.9861 138.943 74.9518 151.022C84.087 162.045 93.5242 173.445 93.5242 184.921C93.5242 190.432 87.1069 207.57 78.2737 231.201C54.0389 295.827 13.5722 404.015 48.9051 423.946C78.5756 440.631 118.061 411.111 146.825 389.519C161.17 378.798 172.495 370.267 179.591 369.437C187.972 368.38 206.318 373.589 229.495 380.157C270.566 391.784 326.736 407.639 357.162 395.483C389.626 382.422 373.394 338.256 365.542 317.041C363.277 310.851 361.767 306.849 361.994 305.188C362.296 302.848 365.617 294.543 370.751 282.086C391.589 230.899 440.285 111.084 413.936 64.5776C408.123 54.3099 400.346 47.8926 390.683 45.3257C365.844 38.8329 331.945 59.2172 304.615 75.6002C286.722 86.3209 271.321 95.6071 261.129 96.362C258.184 96.5885 249.125 95.3806 236.517 93.7196C210.923 90.1712 169.701 84.8109 133.16 84.8109Z" fill="url(#paint7_linear)"/>
<path d="M70.8748 423.795C64.231 423.795 57.8892 422.361 52.1514 419.114C18.7059 400.315 56.5302 292.127 79.104 227.501C86.5783 205.985 92.5426 189.073 92.5426 184.241C92.5426 174.125 84.3888 163.177 75.7821 151.551C66.4204 138.943 56.7567 125.957 58.1912 113.802C58.8707 108.291 61.6641 103.534 66.5714 99.684C95.336 77.1102 189.783 88.8878 235.233 94.4747C247.086 95.9091 255.542 96.9661 258.109 96.8151C267.017 96.2111 281.588 88.0574 298.5 78.6202C317.601 67.8995 339.344 55.7444 359.124 50.9881C382.227 45.4012 398.232 51.0636 407.971 68.2015C432.584 111.613 387.361 231.276 368.033 282.388C363.805 293.562 360.71 301.64 360.483 303.603C360.332 304.811 361.767 309.039 363.579 314.399C370.978 335.916 386.228 380.61 355.425 392.992C327.113 404.317 270.717 389.595 229.571 378.874C206.921 372.985 189.028 368.304 181.63 369.21C175.514 369.965 163.963 377.817 150.676 386.877C127.045 402.958 96.4684 423.795 70.8748 423.795ZM58.7197 113.953L59.2481 114.029C57.8892 125.806 67.4019 138.641 76.6126 151.022C85.2948 162.724 93.524 173.823 93.524 184.317C93.524 189.3 87.8617 205.456 80.01 227.879C57.5872 292.203 19.9894 399.787 52.6044 418.208C80.0855 433.685 120.552 406.129 150.147 386.046C164.114 376.534 175.212 369.059 181.554 368.229C189.179 367.247 207.148 372.004 229.948 377.893C271.019 388.613 327.189 403.26 355.123 392.086C385.02 380.082 369.921 335.991 362.673 314.852C360.634 308.963 359.351 305.113 359.502 303.603C359.728 301.489 362.673 293.788 367.127 282.086C386.379 231.125 431.527 111.764 407.141 68.8055C385.775 31.1322 337.683 58.0093 299.104 79.6016C282.117 89.1143 267.395 97.3436 258.26 97.9476C255.617 98.0985 247.464 97.1171 235.157 95.6071C189.934 89.9448 95.7135 78.2427 67.3264 100.59C62.6455 104.289 59.9276 108.819 59.3236 114.029L58.7197 113.953Z" fill="url(#paint8_linear)"/>
<path d="M73.4417 417.68C67.0244 417.68 61.0601 416.396 55.7753 413.376C25.1233 396.163 59.9277 288.503 80.765 224.179C87.5598 203.116 92.4671 187.941 92.4671 183.713C92.4671 174.502 85.1439 163.404 77.3676 151.626C68.8364 138.641 60.0032 125.278 61.2866 114.18C65.6655 76.9592 183.442 90.6998 233.723 96.5886C244.821 97.872 252.824 98.8535 255.089 98.7025C263.016 98.174 276.832 91.0018 292.762 82.7725C329.982 63.5206 381.019 37.172 401.101 72.7314C423.675 112.519 380.566 236.184 364.409 282.766C360.785 293.109 358.219 300.583 357.992 302.244C357.841 303.376 359.125 307.378 360.71 312.436C367.505 333.877 381.547 378.496 353.387 389.746C327.567 400.089 271.17 386.575 229.948 376.76C207.827 371.475 190.312 367.247 183.593 368.078C178.157 368.757 167.512 375.25 154.073 383.479C129.763 398.428 98.2804 417.68 73.4417 417.68ZM61.8151 114.18L62.3436 114.255C61.0601 124.976 69.8178 138.188 78.1981 151.022C86.0498 162.951 93.5241 174.2 93.5241 183.713C93.5241 188.092 88.6167 203.418 81.7465 224.481C62.4191 284.276 26.4067 395.634 56.3038 412.47C61.4376 415.339 67.2509 416.623 73.5172 416.623C98.0539 416.623 129.385 397.446 153.62 382.573C167.21 374.269 177.855 367.7 183.517 367.021C190.387 366.19 207.978 370.343 230.25 375.703C271.321 385.518 327.491 398.956 353.009 388.764C380.264 377.817 366.448 333.877 359.729 312.738C357.992 307.151 356.784 303.452 356.935 302.093C357.162 300.281 359.653 293.109 363.428 282.388C379.584 235.957 422.618 112.67 400.195 73.2598C380.566 38.6064 330.058 64.7286 293.215 83.754C277.134 92.0587 263.243 99.231 255.089 99.835C252.748 99.986 245.123 99.08 233.497 97.721C183.517 91.9077 66.496 78.1672 62.2681 114.331L61.8151 114.18Z" fill="url(#paint9_linear)"/>
<path d="M75.7822 411.489C69.6669 411.489 64.1556 410.356 59.4747 407.714C31.6161 392.011 64.6841 280.576 82.426 220.707C88.2393 201.002 92.4672 186.808 92.4672 183.109C92.4672 174.88 85.8989 163.555 78.9531 151.626C71.1768 138.263 63.1741 124.523 64.3821 114.406C68.3834 80.7341 183.14 93.2667 232.138 98.627C242.481 99.7595 249.955 100.59 251.994 100.439C258.864 99.986 271.849 93.8707 286.873 86.7739C324.396 69.032 375.81 44.7217 394.231 77.1102C414.766 113.349 375.508 236.637 360.71 283.143C357.615 292.882 355.576 299.3 355.35 300.809C355.199 301.791 356.331 305.566 357.69 310.398C363.881 331.764 376.715 376.232 351.122 386.499C327.718 395.861 271.321 383.63 230.099 374.722C208.431 370.041 191.369 366.341 185.405 367.096C180.648 367.7 170.456 373.287 157.546 380.308C133.84 393.143 100.319 411.489 75.7822 411.489ZM64.9106 114.481L65.439 114.557C64.3066 124.296 72.2338 137.886 79.8591 151.098C86.8803 163.177 93.5241 174.653 93.5241 183.109C93.5241 186.959 89.2963 201.228 83.4075 221.009C65.741 280.576 32.8241 391.482 60.0032 406.808C83.03 419.794 127.649 395.408 157.169 379.251C170.154 372.155 180.422 366.492 185.405 365.888C191.52 365.133 208.733 368.833 230.477 373.589C271.547 382.498 327.793 394.728 350.895 385.442C375.583 375.552 362.446 330.027 356.86 310.624C355.123 304.66 354.293 301.791 354.444 300.658C354.67 299.073 356.558 292.958 359.804 282.841C374.526 236.486 413.709 113.5 393.4 77.7142C375.508 46.1562 324.622 70.2399 287.402 87.8309C272.302 95.0031 259.241 101.118 252.145 101.647C250.031 101.798 242.934 101.043 232.138 99.835C183.442 94.5501 69.3649 82.093 65.5145 114.708L64.9106 114.481Z" fill="url(#paint10_linear)"/>
<path d="M78.4246 405.374C72.5358 405.374 67.3265 404.317 63.0986 401.976C38.0334 387.858 67.9304 276.801 83.9359 217.083C88.8433 198.812 92.3917 185.676 92.3917 182.429C92.3917 175.182 86.6538 163.706 80.5385 151.626C73.5928 137.886 66.4205 123.617 67.4775 114.632C71.0259 84.509 182.913 95.8336 230.628 100.59C240.291 101.571 247.237 102.251 248.974 102.175C254.862 101.798 266.942 96.5886 280.834 90.6243C316.619 75.2983 370.676 52.196 387.285 81.4136C405.782 113.953 370.374 237.165 357.086 283.521C354.595 292.203 352.934 297.865 352.783 299.149C352.707 299.979 353.613 303.527 354.821 308.057C359.955 327.687 371.959 373.74 349.083 382.951C328.171 391.331 271.698 380.384 230.401 372.306C209.337 368.229 192.652 364.982 187.368 365.586C183.291 366.115 173.627 370.72 161.396 376.685C136.86 388.689 102.206 405.374 78.4246 405.374ZM68.0814 114.783L68.6099 114.859C67.553 123.541 74.7252 137.659 81.52 151.249C87.7108 163.479 93.5241 175.031 93.5241 182.58C93.5241 185.902 89.9757 199.114 85.0684 217.46C69.0629 276.877 39.3924 387.405 63.7026 401.146C67.7795 403.411 72.8378 404.392 78.5001 404.392C101.904 404.392 136.482 387.707 161.019 375.93C173.325 369.965 183.14 365.284 187.368 364.756C192.803 364.076 209.488 367.323 230.703 371.475C271.849 379.478 328.171 390.425 348.781 382.12C370.827 373.287 358.974 327.913 353.915 308.51C352.481 302.923 351.726 300.206 351.877 299.149C352.028 297.79 353.613 292.354 356.18 283.37C369.468 237.09 404.725 114.255 386.455 82.093C370.374 53.706 316.77 76.5817 281.362 91.7567C266.791 98.023 255.24 102.93 249.125 103.383C247.313 103.534 240.669 102.855 230.628 101.798C187.217 97.3435 72.0073 85.7169 68.6099 114.783H68.0814Z" fill="url(#paint11_linear)"/>
<path d="M80.916 399.258C75.3292 399.258 70.5728 398.352 66.8735 396.314C44.6772 383.781 71.2523 272.951 85.5214 213.459C89.5227 196.698 92.4671 184.619 92.4671 181.976C92.4671 175.71 87.4843 164.083 82.1995 151.853C76.0842 137.659 69.7424 122.937 70.6483 115.01C73.7437 88.5103 182.687 98.476 229.193 102.704C238.102 103.534 244.519 104.138 245.954 103.987C250.937 103.61 261.431 99.6085 274.718 94.5501C310.957 80.7341 365.693 59.8212 380.49 85.8679C396.873 114.783 364.334 242.45 353.613 284.351C351.726 291.825 350.442 296.733 350.367 297.714C350.291 298.394 351.046 301.791 352.028 306.019C356.558 325.648 367.203 371.626 347.045 379.704C328.624 387.103 272 377.364 230.628 370.267C210.092 366.719 193.936 364.001 189.406 364.529C186.009 364.982 177.024 368.757 165.549 373.514C141.465 383.63 104.32 399.258 80.916 399.258ZM137.539 98.4005C103.037 98.4005 73.2153 102.1 71.7053 115.085C70.7993 122.711 77.0656 137.282 83.1809 151.4C88.5413 163.706 93.5241 175.408 93.5241 181.901C93.5241 184.694 90.7307 196.245 86.5783 213.61C73.3663 268.723 45.8851 383.253 67.4019 395.332C85.8989 405.751 135.501 384.989 165.171 372.532C177.1 367.549 185.707 363.925 189.255 363.473C193.936 362.868 210.243 365.662 230.779 369.21C272 376.307 328.473 385.971 346.592 378.648C365.919 370.871 355.425 325.573 350.971 306.17C349.763 300.961 349.159 298.394 349.31 297.488C349.461 296.431 350.669 291.75 352.632 283.974C363.352 242.148 395.816 114.783 379.66 86.2454C365.315 61.0292 311.108 81.7155 275.247 95.3806C261.884 100.514 251.314 104.516 246.18 104.893C244.595 104.969 238.479 104.44 229.193 103.61C208.356 101.873 170.758 98.4005 137.539 98.4005Z" fill="url(#paint12_linear)"/>
<path d="M83.5584 393.143C78.1981 393.143 73.7438 392.388 70.5729 390.576C51.2455 379.704 75.4047 264.722 87.0313 209.533C90.2022 194.433 92.4671 183.486 92.4671 181.297C92.4671 175.937 88.2393 164.31 83.7849 152.004C78.4246 137.282 72.9133 122.031 73.7438 115.236L74.2722 115.312L73.7438 115.236C76.4617 92.2852 186.386 101.345 227.759 104.742C235.913 105.422 241.726 105.875 243.009 105.799C247.011 105.497 256.448 102.402 268.452 98.4005C302.954 86.8494 360.785 67.5975 373.696 90.3223C383.208 107.083 375.281 172.766 350.14 285.483C348.781 291.523 347.875 295.525 347.8 296.28C347.724 296.884 348.328 299.979 349.159 303.905C353.085 323.534 362.371 369.437 344.931 376.458C329.001 382.8 272.227 374.42 230.703 368.304C210.847 365.36 195.144 363.02 191.293 363.548C188.576 363.925 180.346 366.794 170.003 370.494C144.938 379.327 106.283 393.143 83.5584 393.143ZM138.068 101.043C104.773 101.043 76.0842 104.214 74.8007 115.312C74.0457 121.956 79.4816 137.055 84.7664 151.626C89.2208 164.008 93.5241 175.71 93.5241 181.221C93.5241 183.486 91.3347 193.905 88.0128 209.684C76.4617 264.646 52.3779 379.1 71.0258 389.595C87.2578 398.73 138.823 380.308 169.626 369.286C180.422 365.435 188.274 362.642 191.142 362.264C195.144 361.812 210.847 364.076 230.779 367.021C269.811 372.834 328.775 381.516 344.403 375.25C361.087 368.606 351.575 321.571 348.026 303.905C347.045 298.922 346.592 296.657 346.667 295.978C346.743 295.147 347.649 291.372 349.008 285.031C374.073 172.539 382 107.158 372.639 90.6243C360.182 68.6545 302.879 87.7553 268.678 99.1555C256.674 103.157 247.162 106.328 243.009 106.63C241.726 106.705 236.064 106.252 227.608 105.573C207.374 104.063 170.532 101.043 138.068 101.043Z" fill="url(#paint13_linear)"/>
<path d="M86.0499 386.952C80.9916 386.952 76.8392 386.348 74.1968 384.838C57.8138 375.628 78.3492 260.645 88.3149 205.381C90.7308 192.018 92.4672 182.354 92.4672 180.693C92.4672 176.314 89.0698 164.687 85.3704 152.457C80.8406 137.131 76.1597 121.352 76.8392 115.539C78.8777 98.2496 163.057 102.251 226.249 106.705C233.572 107.234 238.932 107.611 239.914 107.536C243.085 107.309 251.314 104.969 261.733 102.024C296.915 91.9833 355.727 75.2983 366.75 94.7012C374.904 109.046 368.109 173.672 346.668 286.918C345.837 291.372 345.309 294.241 345.233 294.77C345.158 295.223 345.686 298.243 346.29 301.715C349.612 321.269 357.464 367.172 342.742 373.061C329.379 378.421 269.962 371.022 230.628 366.115C211.451 363.699 196.352 361.812 193.181 362.265C191.067 362.491 184.348 364.529 175.062 367.323C150.449 374.571 108.473 386.952 86.0499 386.952ZM77.4432 115.539L77.9717 115.614C77.2922 121.201 82.1996 137.584 86.4274 152.079C90.0513 164.461 93.5242 176.088 93.5242 180.617C93.5242 182.429 91.8632 191.64 89.3718 205.532C80.3121 256.266 59.0218 375.024 74.7253 383.857C88.6168 391.709 144.636 375.099 174.684 366.19C184.046 363.397 190.841 361.434 193.03 361.132C196.276 360.755 210.696 362.491 230.703 364.982C269.886 369.89 329.152 377.213 342.289 372.004C356.256 366.417 348.177 319.457 345.158 301.791C344.403 297.186 344.025 295.147 344.101 294.543C344.176 293.939 344.705 291.221 345.535 286.616C372.186 145.889 371.204 104.818 365.768 95.1542C355.123 76.4308 294.574 93.7197 261.959 103.006C251.088 106.101 243.16 108.366 239.914 108.593C238.857 108.668 234.025 108.291 226.098 107.762C189.935 105.195 79.9346 97.3436 77.8207 115.614L77.4432 115.539Z" fill="url(#paint14_linear)"/>
<path d="M88.6922 380.837C83.8604 380.837 80.0855 380.308 77.9716 379.1C64.533 371.551 82.124 252.038 89.5982 201.002C91.2592 189.602 92.4671 181.297 92.4671 180.013C92.4671 176.541 89.8247 165.14 86.9558 152.985C83.2564 136.98 79.406 120.446 79.9345 115.689C81.5955 101.647 163.435 104.893 224.814 108.593C231.609 108.97 236.139 109.272 236.894 109.197C239.159 109.046 245.727 107.536 254.711 105.422C288.308 97.57 350.744 82.9235 359.804 99.0045C368.637 114.557 353.236 224.557 343.27 288.805C342.893 291.372 342.666 292.882 342.591 293.184C342.591 293.562 342.968 296.28 343.346 299.375C345.837 317.268 352.481 364.831 340.552 369.588C329.756 373.891 269.962 367.927 230.401 363.925C212.055 362.114 197.484 360.604 195.068 360.906C193.634 361.057 188.274 362.34 180.875 364.076C156.64 370.041 110.889 380.837 88.6922 380.837ZM81.067 115.916C80.5385 120.446 84.5399 137.659 88.0128 152.834C90.8062 165.065 93.5241 176.541 93.5241 180.089C93.5241 181.448 92.4671 188.922 90.6552 201.228C83.7849 247.659 65.6655 371.022 78.5001 378.194C90.0512 384.687 153.545 369.663 180.724 363.17C188.425 361.359 193.558 360.151 195.068 359.924C197.635 359.622 211.527 360.981 230.628 362.944C270.113 366.87 329.68 372.91 340.25 368.682C351.424 364.227 344.629 315.607 342.44 299.602C341.836 295.298 341.609 293.562 341.685 293.109C341.76 292.807 341.987 291.221 342.364 288.654C359.427 178.05 365.391 110.933 358.974 99.6085C350.291 84.2825 285.967 99.3065 255.013 106.554C245.954 108.668 239.385 110.178 237.045 110.405C236.214 110.48 231.911 110.178 224.814 109.801C189.708 107.611 82.8034 101.269 81.067 115.916Z" fill="url(#paint15_linear)"/>
<path d="M91.2592 374.722C86.6539 374.722 83.2565 374.344 81.671 373.438C72.4603 368.304 81.671 276.122 90.6552 196.321C91.7122 186.657 92.4672 180.315 92.4672 179.409C92.4672 176.918 90.5797 165.82 88.5413 154.042C85.8234 137.886 82.6525 119.615 83.1055 115.991C84.3889 105.271 163.812 107.762 223.455 110.631C229.193 110.933 233.346 111.084 233.874 111.084C235.384 111.009 240.291 110.103 247.162 108.819C279.173 103.006 345.837 90.9263 353.009 103.459C361.465 118.332 340.326 290.013 340.099 291.75C340.099 292.052 340.326 294.317 340.628 297.186C343.648 325.271 346.667 363.019 338.514 366.341C330.285 369.663 270.037 365.058 230.175 362.038C212.659 360.679 198.843 359.698 197.031 359.849C196.201 359.924 193.03 360.528 188.198 361.359C154.451 367.474 111.04 374.722 91.2592 374.722ZM83.634 116.067L84.1624 116.142C83.7849 119.615 86.8803 137.81 89.5983 153.891C91.7122 166.197 93.5241 176.842 93.5241 179.485C93.5241 180.391 92.8447 186.431 91.7122 196.472C86.9558 238.675 72.4603 367.021 82.1995 372.532C91.3347 377.666 164.114 364.68 188.047 360.377C192.879 359.547 196.125 358.943 196.956 358.867C198.843 358.641 212.055 359.622 230.25 360.981C267.622 363.85 330.133 368.531 338.061 365.36C343.648 363.095 344.101 340.219 339.571 297.337C339.118 293.335 338.967 291.976 339.042 291.599C339.269 289.862 360.257 118.332 352.103 103.987C345.384 92.1342 276.757 104.591 247.388 109.876C240.216 111.16 235.535 111.99 233.95 112.141C233.346 112.217 229.797 111.99 223.38 111.688C206.619 110.933 171.815 109.272 141.314 109.272H141.239C92.2407 109.272 84.4644 113.576 84.1624 116.142L83.634 116.067Z" fill="url(#paint16_linear)"/>
<path d="M93.9014 368.606C89.5226 368.606 86.5027 368.304 85.3702 367.7C80.4629 364.907 82.4258 308.812 91.561 191.112C92.0895 184.015 92.467 179.334 92.467 178.805C92.467 177.22 91.3345 167.33 90.0511 155.93C88.0881 138.49 85.8987 118.785 86.2007 116.218C86.8802 110.631 130.065 109.423 222.096 112.519C227.004 112.67 230.552 112.821 230.854 112.745C231.609 112.67 234.402 112.368 238.706 111.764C282.645 106.252 341.609 99.7595 346.139 107.762C351.726 117.652 337.759 288.503 337.532 290.164C337.532 290.391 337.683 292.354 337.834 294.845C341.08 339.54 340.628 361.208 336.324 362.869C330.737 365.133 269.886 361.963 229.646 359.924C213.112 359.094 200.127 358.414 198.919 358.565H198.768C183.819 360.604 118.061 368.606 93.9014 368.606ZM87.2577 116.444C86.9557 118.86 89.2961 139.396 91.108 155.854C92.3915 167.33 93.524 177.22 93.524 178.881C93.524 179.409 93.222 183.637 92.618 191.263C81.5953 333.273 82.8788 365.133 85.8987 366.794C91.561 369.965 159.509 362.566 198.692 357.659H198.843C200.051 357.508 210.243 358.037 229.722 359.018C267.47 360.981 330.586 364.152 335.947 362.038C338.514 361.057 340.703 348.599 336.777 295.072C336.475 291.221 336.475 290.391 336.475 290.164C336.702 288.579 350.518 117.879 345.157 108.442C342.062 102.93 306.276 104.516 238.781 113.047C234.478 113.576 231.684 113.953 230.854 114.029C230.477 114.029 227.834 113.953 221.945 113.802C205.94 113.274 172.721 112.141 142.899 112.141C142.673 112.141 142.371 112.141 142.144 112.141C93.1465 111.99 87.4841 115.085 87.2577 116.444Z" fill="url(#paint17_linear)"/>
<path d="M96.6951 362.491C92.3917 362.491 89.5983 362.34 88.9943 362.038C88.0128 361.51 85.1439 359.849 92.1652 185.223C92.3162 181.146 92.4672 178.428 92.4672 178.277C92.4672 177.597 92.0142 169.897 91.4857 160.158C90.2023 137.055 89.1453 117.879 89.2963 116.595C89.4473 115.161 89.8248 112.217 220.662 114.482C224.814 114.557 227.532 114.633 227.759 114.557H228.061C253.428 112.821 336.4 107.385 339.193 112.217C342.138 117.35 335.116 287.22 334.965 288.73C334.965 288.881 335.041 290.466 335.116 292.656C337.306 350.864 335.796 359.018 334.21 359.698C331.568 360.755 280.758 359.547 228.891 358.188C213.565 357.81 201.486 357.508 200.806 357.508C200.051 357.659 121.987 362.491 96.6951 362.491ZM90.4288 116.822C90.3533 118.936 91.7122 143.624 92.6182 160.082C93.1467 169.821 93.5996 177.522 93.5996 178.277C93.5996 178.503 93.5241 180.542 93.2977 185.298C87.2578 334.557 88.4658 359.547 89.6738 361.132C93.2977 363.02 199.825 356.602 200.806 356.451C201.41 356.376 210.394 356.602 229.042 357.055C264.753 357.961 331.19 359.698 333.908 358.641C334.89 357.81 336.173 348.146 334.135 292.656C333.984 289.107 333.984 288.73 333.984 288.579C334.135 286.993 340.93 117.275 338.363 112.745C336.475 109.574 280.003 111.99 228.287 115.614H227.985C227.834 115.614 226.022 115.614 220.813 115.538C111.342 113.651 92.0142 115.463 90.4288 116.822Z" fill="url(#paint18_linear)"/>
<path d="M332.474 356.376H92.467V116.369H332.474V356.376ZM93.524 355.319H331.341V117.501H93.524V355.319Z" fill="url(#paint19_linear)"/>
<rect x="94" y="116" width="238" height="240" fill="#C4C4C4"/>
<rect x="94" y="116" width="238" height="240" fill="url(#paint20_linear)"/>
<path d="M196.06 232.591L202.843 251H206.926L211.597 237.367L216.268 251H220.386L227.099 232.591H223.051L218.345 247.055L213.673 232.591H209.556L204.919 247.055L200.144 232.591H196.06ZM236.755 232.453C231.288 232.488 227.447 236.259 227.447 241.83C227.447 247.367 231.184 251.138 236.859 251.138C240.042 251.138 242.672 249.997 244.471 248.024L242.36 245.775C241.011 247.159 239.177 247.92 237.17 247.92C234.263 247.92 232.083 246.156 231.461 243.318H245.371C245.855 236.674 243.226 232.453 236.755 232.453ZM231.391 240.412C231.807 237.47 233.883 235.636 236.789 235.636C239.8 235.636 241.772 237.436 241.911 240.412H231.391ZM263.873 236.259V232.591H259.893V251H263.873V241.38C264.184 238.232 266.537 236.052 270.24 236.259V232.453C267.333 232.453 265.118 233.768 263.873 236.259ZM275.484 224.944C274.169 224.944 273.165 225.948 273.165 227.332C273.165 228.681 274.169 229.685 275.484 229.685C276.799 229.685 277.802 228.681 277.802 227.332C277.802 225.948 276.799 224.944 275.484 224.944ZM273.511 232.591V251H277.456V232.591H273.511ZM293.829 237.228L295.283 234.287C293.622 233.11 291.165 232.418 288.847 232.418C285.317 232.418 282.065 234.01 282.065 237.747C282.03 244.391 291.719 242.28 291.719 246.052C291.719 247.436 290.404 248.024 288.708 248.024C286.701 248.024 284.141 247.159 282.549 245.74L281.13 248.578C282.964 250.239 285.836 251.138 288.535 251.138C292.238 251.138 295.594 249.443 295.594 245.671C295.629 238.993 285.836 240.827 285.836 237.436C285.836 236.121 286.978 235.602 288.535 235.602C290.162 235.602 292.203 236.225 293.829 237.228ZM307.177 232.453C301.709 232.488 297.869 236.259 297.869 241.83C297.869 247.367 301.606 251.138 307.28 251.138C310.464 251.138 313.094 249.997 314.893 248.024L312.782 245.775C311.433 247.159 309.599 247.92 307.592 247.92C304.685 247.92 302.505 246.156 301.882 243.318H315.793C316.277 236.674 313.647 232.453 307.177 232.453ZM301.813 240.412C302.228 237.47 304.305 235.636 307.211 235.636C310.222 235.636 312.194 237.436 312.332 240.412H301.813ZM177.724 274.453C174.852 274.453 172.637 275.629 171.288 277.775V267.325H167.308V293H171.288V289.817C172.637 291.962 174.852 293.138 177.793 293.138C183.053 293.138 186.513 289.367 186.513 283.865C186.513 278.259 182.949 274.453 177.724 274.453ZM176.893 289.747C173.606 289.747 171.288 287.291 171.288 283.726C171.288 280.266 173.606 277.775 176.893 277.775C180.181 277.775 182.499 280.301 182.499 283.726C182.499 287.256 180.181 289.747 176.893 289.747ZM197.21 295.526L205.584 274.591H201.605L196.484 288.536L190.982 274.591H186.864L194.477 292.723L193.854 294.107C193.231 295.491 192.262 296.149 191.051 296.149C190.221 296.149 189.529 295.872 188.664 295.249L186.968 298.329C188.248 299.401 189.563 299.886 191.224 299.886C193.992 299.886 196.069 298.433 197.21 295.526ZM218.908 267.325V293H222.888V267.325H218.908ZM230.913 266.944C229.598 266.944 228.594 267.948 228.594 269.332C228.594 270.681 229.598 271.685 230.913 271.685C232.228 271.685 233.231 270.681 233.231 269.332C233.231 267.948 232.228 266.944 230.913 266.944ZM228.94 274.591V293H232.885V274.591H228.94ZM245.971 270.612C246.801 270.612 247.736 270.924 248.497 271.477L250.02 268.432C248.843 267.567 247.355 267.152 245.867 267.152C242.684 267.152 239.535 269.193 239.535 273.484V275.283H237.113V278.259H239.535V293H243.48V278.259H248.289V275.283H243.48V273.103C243.48 271.373 244.622 270.612 245.971 270.612ZM260.351 288.778C259.278 289.298 258.413 289.574 257.582 289.574C256.337 289.574 255.61 288.986 255.61 287.083V278.259H261.043V275.283H255.61V270.231H251.665V275.283H249.07V278.259H251.665V287.81C251.665 291.581 254.053 293.173 256.821 293.173C258.378 293.173 259.901 292.689 261.354 291.824L260.351 288.778ZM267.002 266.944C265.687 266.944 264.684 267.948 264.684 269.332C264.684 270.681 265.687 271.685 267.002 271.685C268.317 271.685 269.321 270.681 269.321 269.332C269.321 267.948 268.317 266.944 267.002 266.944ZM265.03 274.591V293H268.974V274.591H265.03ZM285.625 274.453C282.51 274.453 280.157 275.56 278.842 278.121V274.591H274.863V293H278.842V283.207C279.119 280.335 281.022 278.225 284.067 278.19C286.836 278.19 288.497 279.886 288.497 282.654V293H292.476V281.547C292.476 277.152 289.915 274.453 285.625 274.453ZM310.472 274.591V277.567C309.192 275.56 307.081 274.418 304.244 274.453C299.365 274.488 296.078 278.017 296.078 283.207C296.078 288.502 299.399 292.1 304.382 292.1C307.15 292.1 309.227 290.993 310.472 288.986V291.304C310.472 294.488 308.188 296.529 304.694 296.529C302.444 296.529 300.645 295.803 298.915 294.523L297.219 297.395C299.469 298.917 301.995 299.817 304.867 299.817C310.645 299.817 314.417 296.495 314.417 291.201V274.591H310.472ZM305.178 288.986C301.995 288.986 299.849 286.633 299.815 283.311C299.849 280.024 302.029 277.671 305.178 277.671C308.292 277.671 310.472 279.989 310.472 283.311C310.472 286.633 308.292 288.986 305.178 288.986ZM218.751 316.453C213.042 316.453 209.132 320.225 209.132 325.761C209.132 331.332 213.042 335.138 218.751 335.138C224.426 335.138 228.336 331.332 228.336 325.761C228.336 320.225 224.426 316.453 218.751 316.453ZM218.751 319.844C222.038 319.844 224.357 322.301 224.357 325.83C224.357 329.394 222.038 331.817 218.751 331.817C215.429 331.817 213.111 329.394 213.111 325.83C213.111 322.301 215.429 319.844 218.751 319.844ZM241.9 330.778C240.828 331.298 239.963 331.574 239.132 331.574C237.886 331.574 237.16 330.986 237.16 329.083V320.259H242.592V317.283H237.16V312.231H233.215V317.283H230.62V320.259H233.215V329.81C233.215 333.581 235.603 335.173 238.371 335.173C239.928 335.173 241.451 334.689 242.904 333.824L241.9 330.778ZM257.549 316.453C254.4 316.453 252.047 317.595 250.732 320.19V309.325H246.753V335H250.732V325.934C250.732 322.681 252.704 320.225 255.991 320.19C258.76 320.19 260.421 321.886 260.421 324.654V335H264.4V323.547C264.4 319.152 261.839 316.453 257.549 316.453ZM277.305 316.453C271.838 316.488 267.997 320.259 267.997 325.83C267.997 331.367 271.734 335.138 277.409 335.138C280.592 335.138 283.222 333.997 285.021 332.024L282.91 329.775C281.561 331.159 279.727 331.92 277.72 331.92C274.813 331.92 272.633 330.156 272.011 327.318H285.921C286.405 320.674 283.776 316.453 277.305 316.453ZM271.941 324.412C272.357 321.47 274.433 319.636 277.339 319.636C280.35 319.636 282.322 321.436 282.461 324.412H271.941ZM294.049 320.259V316.591H290.069V335H294.049V325.38C294.36 322.232 296.713 320.052 300.416 320.259V316.453C297.509 316.453 295.294 317.768 294.049 320.259ZM314.172 321.228L315.625 318.287C313.964 317.11 311.508 316.418 309.189 316.418C305.66 316.418 302.407 318.01 302.407 321.747C302.373 328.391 312.061 326.28 312.061 330.052C312.061 331.436 310.746 332.024 309.051 332.024C307.044 332.024 304.483 331.159 302.892 329.74L301.473 332.578C303.307 334.239 306.179 335.138 308.878 335.138C312.58 335.138 315.937 333.443 315.937 329.671C315.971 322.993 306.179 324.827 306.179 321.436C306.179 320.121 307.321 319.602 308.878 319.602C310.504 319.602 312.546 320.225 314.172 321.228Z" fill="white"/>
<defs>
<linearGradient id="paint0_linear" x1="-0.0173934" y1="236.373" x2="475.264" y2="236.373" gradientUnits="userSpaceOnUse">
<stop stop-color="#1CAFAF"/>
<stop offset="0.5269" stop-color="#1CAFAF"/>
<stop offset="1" stop-color="#2FBC80"/>
</linearGradient>
<linearGradient id="paint1_linear" x1="4.8024" y1="236.382" x2="467.777" y2="236.382" gradientUnits="userSpaceOnUse">
<stop stop-color="#1CAFAF"/>
<stop offset="0.5269" stop-color="#1CAFAF"/>
<stop offset="1" stop-color="#2FBC80"/>
</linearGradient>
<linearGradient id="paint2_linear" x1="9.62347" y1="236.401" x2="460.289" y2="236.401" gradientUnits="userSpaceOnUse">
<stop stop-color="#1CAFAF"/>
<stop offset="0.5269" stop-color="#1CAFAF"/>
<stop offset="1" stop-color="#2FBC80"/>
</linearGradient>
<linearGradient id="paint3_linear" x1="14.4469" y1="236.408" x2="452.801" y2="236.408" gradientUnits="userSpaceOnUse">
<stop stop-color="#1CAFAF"/>
<stop offset="0.5269" stop-color="#1CAFAF"/>
<stop offset="1" stop-color="#2FBC80"/>
</linearGradient>
<linearGradient id="paint4_linear" x1="19.3656" y1="236.415" x2="445.312" y2="236.415" gradientUnits="userSpaceOnUse">
<stop stop-color="#1CAFAF"/>
<stop offset="0.5269" stop-color="#1CAFAF"/>
<stop offset="1" stop-color="#2FBC80"/>
</linearGradient>
<linearGradient id="paint5_linear" x1="24.2365" y1="236.348" x2="437.615" y2="236.348" gradientUnits="userSpaceOnUse">
<stop stop-color="#1CAFAF"/>
<stop offset="0.5269" stop-color="#1CAFAF"/>
<stop offset="1" stop-color="#2FBC80"/>
</linearGradient>
<linearGradient id="paint6_linear" x1="29.2291" y1="236.356" x2="430.138" y2="236.356" gradientUnits="userSpaceOnUse">
<stop stop-color="#1CAFAF"/>
<stop offset="0.5269" stop-color="#1CAFAF"/>
<stop offset="1" stop-color="#2FBC80"/>
</linearGradient>
<linearGradient id="paint7_linear" x1="34.0423" y1="236.364" x2="422.661" y2="236.364" gradientUnits="userSpaceOnUse">
<stop stop-color="#1CAFAF"/>
<stop offset="0.5269" stop-color="#1CAFAF"/>
<stop offset="1" stop-color="#2FBC80"/>
</linearGradient>
<linearGradient id="paint8_linear" x1="38.8593" y1="236.384" x2="415.183" y2="236.384" gradientUnits="userSpaceOnUse">
<stop stop-color="#1CAFAF"/>
<stop offset="0.5269" stop-color="#1CAFAF"/>
<stop offset="1" stop-color="#2FBC80"/>
</linearGradient>
<linearGradient id="paint9_linear" x1="43.6797" y1="236.423" x2="407.555" y2="236.423" gradientUnits="userSpaceOnUse">
<stop stop-color="#1CAFAF"/>
<stop offset="0.5269" stop-color="#1CAFAF"/>
<stop offset="1" stop-color="#2FBC80"/>
</linearGradient>
<linearGradient id="paint10_linear" x1="48.7156" y1="236.341" x2="400.089" y2="236.341" gradientUnits="userSpaceOnUse">
<stop stop-color="#1CAFAF"/>
<stop offset="0.5269" stop-color="#1CAFAF"/>
<stop offset="1" stop-color="#2FBC80"/>
</linearGradient>
<linearGradient id="paint11_linear" x1="53.526" y1="236.424" x2="392.621" y2="236.424" gradientUnits="userSpaceOnUse">
<stop stop-color="#1CAFAF"/>
<stop offset="0.5269" stop-color="#1CAFAF"/>
<stop offset="1" stop-color="#2FBC80"/>
</linearGradient>
<linearGradient id="paint12_linear" x1="58.3425" y1="236.351" x2="385.047" y2="236.351" gradientUnits="userSpaceOnUse">
<stop stop-color="#1CAFAF"/>
<stop offset="0.5269" stop-color="#1CAFAF"/>
<stop offset="1" stop-color="#2FBC80"/>
</linearGradient>
<linearGradient id="paint13_linear" x1="63.3106" y1="236.409" x2="377.531" y2="236.409" gradientUnits="userSpaceOnUse">
<stop stop-color="#1CAFAF"/>
<stop offset="0.5269" stop-color="#1CAFAF"/>
<stop offset="1" stop-color="#2FBC80"/>
</linearGradient>
<linearGradient id="paint14_linear" x1="68.1242" y1="236.348" x2="370.085" y2="236.348" gradientUnits="userSpaceOnUse">
<stop stop-color="#1CAFAF"/>
<stop offset="0.5269" stop-color="#1CAFAF"/>
<stop offset="1" stop-color="#2FBC80"/>
</linearGradient>
<linearGradient id="paint15_linear" x1="73.0479" y1="236.364" x2="362.511" y2="236.364" gradientUnits="userSpaceOnUse">
<stop stop-color="#1CAFAF"/>
<stop offset="0.5269" stop-color="#1CAFAF"/>
<stop offset="1" stop-color="#2FBC80"/>
</linearGradient>
<linearGradient id="paint16_linear" x1="77.844" y1="236.364" x2="355" y2="236.364" gradientUnits="userSpaceOnUse">
<stop stop-color="#1CAFAF"/>
<stop offset="0.5269" stop-color="#1CAFAF"/>
<stop offset="1" stop-color="#2FBC80"/>
</linearGradient>
<linearGradient id="paint17_linear" x1="82.7343" y1="236.367" x2="347.458" y2="236.367" gradientUnits="userSpaceOnUse">
<stop stop-color="#1CAFAF"/>
<stop offset="0.5269" stop-color="#1CAFAF"/>
<stop offset="1" stop-color="#2FBC80"/>
</linearGradient>
<linearGradient id="paint18_linear" x1="87.6203" y1="236.389" x2="339.961" y2="236.389" gradientUnits="userSpaceOnUse">
<stop stop-color="#1CAFAF"/>
<stop offset="0.5269" stop-color="#1CAFAF"/>
<stop offset="1" stop-color="#2FBC80"/>
</linearGradient>
<linearGradient id="paint19_linear" x1="92.4648" y1="236.374" x2="332.443" y2="236.374" gradientUnits="userSpaceOnUse">
<stop stop-color="#1CAFAF"/>
<stop offset="0.5269" stop-color="#1CAFAF"/>
<stop offset="1" stop-color="#2FBC80"/>
</linearGradient>
<linearGradient id="paint20_linear" x1="147.429" y1="89.3333" x2="326.8" y2="271.267" gradientUnits="userSpaceOnUse">
<stop stop-color="#25C5C4"/>
<stop offset="1" stop-color="#25C59F"/>
</linearGradient>
</defs>
</svg>
