<svg width="24" height="24" viewBox="0 0 24 24" fill="none" xmlns="http://www.w3.org/2000/svg">
<path d="M12 7.19298C9.33989 7.19298 7.19302 9.33986 7.19302 12C7.19302 14.6602 9.33989 16.807 12 16.807C14.6602 16.807 16.8071 14.6602 16.8071 12C16.8071 9.33986 14.6602 7.19298 12 7.19298ZM12 15.1242C10.2797 15.1242 8.87583 13.7203 8.87583 12C8.87583 10.2797 10.2797 8.87579 12 8.87579C13.7204 8.87579 15.1243 10.2797 15.1243 12C15.1243 13.7203 13.7204 15.1242 12 15.1242ZM17.004 5.87579C16.3829 5.87579 15.8813 6.37736 15.8813 6.99845C15.8813 7.61954 16.3829 8.12111 17.004 8.12111C17.6251 8.12111 18.1266 7.62189 18.1266 6.99845C18.1268 6.85097 18.0979 6.7049 18.0415 6.56861C17.9852 6.43232 17.9025 6.30849 17.7982 6.2042C17.6939 6.09992 17.5701 6.01723 17.4338 5.96088C17.2975 5.90452 17.1514 5.87561 17.004 5.87579ZM21.3704 12C21.3704 10.7063 21.3821 9.42423 21.3094 8.13283C21.2368 6.63283 20.8946 5.30158 19.7977 4.2047C18.6985 3.10548 17.3696 2.76564 15.8696 2.69298C14.5758 2.62033 13.2938 2.63204 12.0024 2.63204C10.7086 2.63204 9.42661 2.62033 8.13521 2.69298C6.63521 2.76564 5.30396 3.10783 4.20708 4.2047C3.10786 5.30392 2.76802 6.63283 2.69536 8.13283C2.62271 9.42658 2.63443 10.7086 2.63443 12C2.63443 13.2914 2.62271 14.5758 2.69536 15.8672C2.76802 17.3672 3.11021 18.6985 4.20708 19.7953C5.3063 20.8945 6.63521 21.2344 8.13521 21.307C9.42896 21.3797 10.711 21.368 12.0024 21.368C13.2961 21.368 14.5782 21.3797 15.8696 21.307C17.3696 21.2344 18.7008 20.8922 19.7977 19.7953C20.8969 18.6961 21.2368 17.3672 21.3094 15.8672C21.3844 14.5758 21.3704 13.2938 21.3704 12ZM19.3079 17.5266C19.1368 17.9531 18.9305 18.2719 18.6 18.6C18.2696 18.9305 17.9532 19.1367 17.5266 19.3078C16.2938 19.7977 13.3665 19.6875 12 19.6875C10.6336 19.6875 7.70396 19.7977 6.47114 19.3102C6.04458 19.1391 5.72583 18.9328 5.39771 18.6024C5.06724 18.2719 4.86099 17.9555 4.68989 17.5289C4.20239 16.2938 4.31255 13.3664 4.31255 12C4.31255 10.6336 4.20239 7.70392 4.68989 6.47111C4.86099 6.04454 5.06724 5.72579 5.39771 5.39767C5.72818 5.06954 6.04458 4.86095 6.47114 4.68986C7.70396 4.20236 10.6336 4.31251 12 4.31251C13.3665 4.31251 16.2961 4.20236 17.529 4.68986C17.9555 4.86095 18.2743 5.0672 18.6024 5.39767C18.9329 5.72814 19.1391 6.04454 19.3102 6.47111C19.7977 7.70392 19.6875 10.6336 19.6875 12C19.6875 13.3664 19.7977 16.2938 19.3079 17.5266Z" fill="white"/>
</svg>
