<svg width="24" height="24" viewBox="0 0 24 24" fill="none" xmlns="http://www.w3.org/2000/svg">
<path d="M15.7119 8.2868C15.8526 8.42746 15.9316 8.61823 15.9316 8.81714C15.9316 9.01605 15.8526 9.20682 15.7119 9.34748L9.348 15.7114C9.27835 15.7811 9.19566 15.8363 9.10466 15.874C9.01366 15.9117 8.91612 15.9311 8.81762 15.9311C8.71912 15.9311 8.62159 15.9117 8.53059 15.874C8.43959 15.8363 8.35691 15.781 8.28727 15.7114C8.21762 15.6417 8.16237 15.559 8.12469 15.468C8.087 15.377 8.0676 15.2795 8.0676 15.181C8.06761 15.0825 8.08701 14.985 8.12471 14.894C8.16241 14.803 8.21766 14.7203 8.28731 14.6506L14.6512 8.2868C14.7919 8.1462 14.9827 8.06723 15.1816 8.06723C15.3805 8.06723 15.5712 8.1462 15.7119 8.2868V8.2868ZM13.06 16.2424L10.4084 18.894C9.70339 19.5887 8.75232 19.9765 7.76256 19.9729C6.7728 19.9692 5.82463 19.5744 5.12476 18.8745C4.42489 18.1747 4.03009 17.2265 4.02643 16.2367C4.02278 15.247 4.41057 14.2959 5.10525 13.5909L7.75687 10.9393C7.89754 10.7986 7.97657 10.6078 7.97657 10.4089C7.97657 10.2099 7.89754 10.0192 7.75687 9.87848C7.61621 9.73782 7.42542 9.65879 7.22648 9.65879C7.02755 9.65879 6.83676 9.73782 6.69609 9.87848L4.04447 12.5301C3.05989 13.5147 2.50675 14.85 2.50674 16.2424C2.50674 17.6348 3.05985 18.9702 4.04442 19.9548C5.02899 20.9394 6.36435 21.4925 7.75675 21.4925C9.14914 21.4925 10.4845 20.9394 11.4691 19.9548L14.1208 17.3031C14.1905 17.2335 14.2457 17.1508 14.2834 17.0598C14.3211 16.9688 14.3405 16.8712 14.3405 16.7727C14.3405 16.6742 14.3211 16.5767 14.2834 16.4857C14.2457 16.3947 14.1904 16.312 14.1208 16.2424C14.0511 16.1727 13.9684 16.1175 13.8774 16.0798C13.7864 16.0421 13.6889 16.0227 13.5904 16.0227C13.4919 16.0227 13.3944 16.0421 13.3034 16.0798C13.2124 16.1175 13.1297 16.1728 13.06 16.2424ZM19.9549 4.04433C18.9703 3.05981 17.6349 2.50671 16.2426 2.50671C14.8502 2.50671 13.5148 3.05981 12.5303 4.04433L9.87862 6.69595C9.80898 6.7656 9.75373 6.84828 9.71604 6.93928C9.67835 7.03027 9.65895 7.1278 9.65895 7.2263C9.65895 7.32479 9.67835 7.42232 9.71604 7.51332C9.75373 7.60431 9.80898 7.68699 9.87862 7.75664C9.94827 7.82629 10.031 7.88153 10.1219 7.91922C10.2129 7.95692 10.3105 7.97632 10.409 7.97632C10.5075 7.97632 10.605 7.95692 10.696 7.91922C10.787 7.88153 10.8697 7.82629 10.9393 7.75664L13.5909 5.10501C14.2956 4.4088 15.2472 4.01971 16.2378 4.02271C17.2284 4.02571 18.1776 4.42055 18.8781 5.12102C19.5786 5.82148 19.9734 6.77066 19.9764 7.76128C19.9795 8.75189 19.5904 9.70345 18.8942 10.4082L16.2425 13.0599C16.1018 13.2006 16.0228 13.3913 16.0228 13.5903C16.0228 13.7892 16.1018 13.98 16.2425 14.1206C16.3832 14.2613 16.574 14.3403 16.7729 14.3403C16.9718 14.3403 17.1626 14.2612 17.3032 14.1206L19.9549 11.469C20.938 10.4836 21.49 9.14853 21.49 7.75664C21.49 6.36475 20.938 5.02968 19.9549 4.04433V4.04433Z" fill="white"/>
</svg>
