<svg width="24" height="24" viewBox="0 0 24 24" fill="none" xmlns="http://www.w3.org/2000/svg">
<path d="M3.81918 4.07842C4.8744 5.37656 6.19072 6.43837 7.68275 7.195C9.17478 7.95163 10.8092 8.38616 12.48 8.47042C12.3358 7.85361 12.3329 7.21219 12.4714 6.59409C12.61 5.97599 12.8865 5.39721 13.2803 4.901C13.674 4.40479 14.1748 4.00399 14.7452 3.72856C15.3156 3.45313 15.9409 3.31019 16.5744 3.31043C19.1168 3.31043 20.792 5.63362 20.792 8.00162C20.792 13.5552 16.5648 19.96 8.83198 19.96C6.548 19.9626 4.31163 19.3071 2.39038 18.072" stroke="white" stroke-width="1.6" stroke-linecap="round" stroke-linejoin="round"/>
<path d="M3.67352 4.02881C3.26872 4.68161 3.24952 5.42241 3.24952 6.19201C3.24952 7.64801 3.99192 8.93601 5.11992 9.68961C4.45252 9.66881 3.79974 9.48889 3.21592 9.16481V9.21761C3.21592 11.2544 4.66392 12.9536 6.58712 13.3392C5.9682 13.5066 5.31935 13.5312 4.68952 13.4112C4.95776 14.2465 5.48053 14.9769 6.18461 15.5002C6.88868 16.0235 7.73881 16.3135 8.61593 16.3296C6.86393 17.7024 4.61112 18.1792 2.40472 17.9184" stroke="white" stroke-width="1.6" stroke-linecap="round" stroke-linejoin="round"/>
<path d="M21.1152 5.71043C21.9479 5.61107 22.7612 5.3878 23.528 5.04803L23.5264 5.05123C22.9625 5.89532 22.2528 6.63217 21.4304 7.22723L20.2944 4.40323C21.2351 4.21838 22.1373 3.87366 22.9616 3.38403C22.6484 4.35812 21.9916 5.18501 21.1136 5.71043H21.1152Z" fill="white"/>
</svg>
