<svg width="24" height="24" viewBox="0 0 24 24" fill="none" xmlns="http://www.w3.org/2000/svg">
<path d="M22.5 11.9344C22.5 11.8828 22.5 11.8242 22.4977 11.7562C22.4953 11.5664 22.4906 11.3531 22.4859 11.1258C22.4672 10.4719 22.4344 9.82029 22.3828 9.20623C22.3125 8.36013 22.2094 7.65466 22.0687 7.12498C21.9204 6.5722 21.6295 6.06806 21.2252 5.66294C20.8209 5.25781 20.3173 4.9659 19.7648 4.81638C19.1016 4.63826 17.8031 4.5281 15.975 4.46013C15.1055 4.42732 14.175 4.40623 13.2445 4.39451C12.9187 4.38982 12.6164 4.38748 12.3445 4.38513H11.6555C11.3836 4.38748 11.0813 4.38982 10.7555 4.39451C9.825 4.40623 8.89453 4.42732 8.025 4.46013C6.19687 4.53044 4.89609 4.6406 4.23516 4.81638C3.6825 4.96554 3.17876 5.25732 2.7744 5.6625C2.37004 6.06768 2.07928 6.57202 1.93125 7.12498C1.78828 7.65466 1.6875 8.36013 1.61719 9.20623C1.56562 9.82029 1.53281 10.4719 1.51406 11.1258C1.50703 11.3531 1.50469 11.5664 1.50234 11.7562C1.50234 11.8242 1.5 11.8828 1.5 11.9344V12.0656C1.5 12.1172 1.5 12.1758 1.50234 12.2437C1.50469 12.4336 1.50937 12.6469 1.51406 12.8742C1.53281 13.5281 1.56562 14.1797 1.61719 14.7937C1.6875 15.6398 1.79063 16.3453 1.93125 16.875C2.23125 17.9976 3.1125 18.8836 4.23516 19.1836C4.89609 19.3617 6.19687 19.4719 8.025 19.5398C8.89453 19.5726 9.825 19.5937 10.7555 19.6054C11.0813 19.6101 11.3836 19.6125 11.6555 19.6148H12.3445C12.6164 19.6125 12.9187 19.6101 13.2445 19.6054C14.175 19.5937 15.1055 19.5726 15.975 19.5398C17.8031 19.4695 19.1039 19.3594 19.7648 19.1836C20.8875 18.8836 21.7687 18 22.0687 16.875C22.2117 16.3453 22.3125 15.6398 22.3828 14.7937C22.4344 14.1797 22.4672 13.5281 22.4859 12.8742C22.493 12.6469 22.4953 12.4336 22.4977 12.2437C22.4977 12.1758 22.5 12.1172 22.5 12.0656V11.9344ZM20.8125 12.0562C20.8125 12.1054 20.8125 12.1594 20.8102 12.2226C20.8078 12.4054 20.8031 12.607 20.7984 12.825C20.782 13.4484 20.7492 14.0718 20.7 14.6508C20.6367 15.4054 20.5477 16.0242 20.4375 16.439C20.2922 16.9804 19.8656 17.4094 19.3266 17.5523C18.8344 17.6836 17.5945 17.789 15.9094 17.8523C15.0562 17.8851 14.1375 17.9062 13.2211 17.9179C12.9 17.9226 12.6023 17.925 12.3352 17.925H11.6648L10.7789 17.9179C9.8625 17.9062 8.94609 17.8851 8.09063 17.8523C6.40547 17.7867 5.16328 17.6836 4.67344 17.5523C4.13437 17.407 3.70781 16.9804 3.5625 16.439C3.45234 16.0242 3.36328 15.4054 3.3 14.6508C3.25078 14.0718 3.22031 13.4484 3.20156 12.825C3.19453 12.607 3.19219 12.4031 3.18984 12.2226C3.18984 12.1594 3.1875 12.1031 3.1875 12.0562V11.9437C3.1875 11.8945 3.1875 11.8406 3.18984 11.7773C3.19219 11.5945 3.19688 11.3929 3.20156 11.175C3.21797 10.5515 3.25078 9.9281 3.3 9.34919C3.36328 8.59451 3.45234 7.97576 3.5625 7.56091C3.70781 7.01951 4.13437 6.5906 4.67344 6.44763C5.16562 6.31638 6.40547 6.21091 8.09063 6.14763C8.94375 6.11482 9.8625 6.09373 10.7789 6.08201C11.1 6.07732 11.3977 6.07498 11.6648 6.07498H12.3352L13.2211 6.08201C14.1375 6.09373 15.0539 6.11482 15.9094 6.14763C17.5945 6.21326 18.8367 6.31638 19.3266 6.44763C19.8656 6.59294 20.2922 7.01951 20.4375 7.56091C20.5477 7.97576 20.6367 8.59451 20.7 9.34919C20.7492 9.9281 20.7797 10.5515 20.7984 11.175C20.8055 11.3929 20.8078 11.5969 20.8102 11.7773C20.8102 11.8406 20.8125 11.8969 20.8125 11.9437V12.0562ZM9.91406 15.1406L15.3516 11.9765L9.91406 8.85935V15.1406Z" fill="white"/>
</svg>
